<?xml version="1.0" encoding="UTF-8"?>
<!DOCTYPE svg PUBLIC "-//W3C//DTD SVG 1.1//EN" "http://www.w3.org/Graphics/SVG/1.1/DTD/svg11.dtd">
<!-- Creator: CorelDRAW -->
<svg xmlns="http://www.w3.org/2000/svg" xml:space="preserve" width="10.0648in" height="1.188in" version="1.1" style="shape-rendering:geometricPrecision; text-rendering:geometricPrecision; image-rendering:optimizeQuality; fill-rule:evenodd; clip-rule:evenodd"
viewBox="0 0 1905.86 224.96"
 xmlns:xlink="http://www.w3.org/1999/xlink"
 xmlns:xodm="http://www.corel.com/coreldraw/odm/2003">
 <defs>
  <style type="text/css">
   <![CDATA[
    .fil1 {fill:#1C326E}
    .fil0 {fill:#EF233C;fill-rule:nonzero}
   ]]>
  </style>
 </defs>
 <g id="Layer_x0020_1">
  <metadata id="CorelCorpID_0Corel-Layer"/>
  <g id="_1426603331824">
   <path class="fil0" d="M606.75 174.51l-13.54 0c-5.95,0 -11.54,-3.14 -16.82,-9.45 -5.41,6.32 -11.91,9.45 -19.54,9.45l-109.21 0c-16.68,0 -30.68,-5.09 -42.04,-15.32 -11.82,-10.63 -17.72,-24.22 -17.72,-40.72 0,-20.27 9.32,-41.4 27.95,-63.4l17.32 16.5c-13.82,15.91 -20.72,30.09 -20.72,42.58 0,9.32 2.86,17.54 8.63,24.63 6.14,7.64 13.77,11.45 22.9,11.45l104.07 0c9.27,0 13.86,-4.82 13.86,-14.5 0,-0.86 -0.05,-2 -0.18,-3.32l-4.54 -34.63c-1.27,-9.41 -8.5,-16.13 -21.72,-20.22 -3.04,-0.86 -9.13,-1.45 -18.41,-1.73 -8.41,-0.18 -13.91,-0.04 -16.36,0.41 -1.86,0.36 -3.45,0.55 -4.82,0.55 -8.68,0 -13.04,-5.14 -13.04,-15.36 0,-2.27 0.27,-4.86 0.77,-7.73l2.14 -11.45c2.41,-12.77 11.23,-21.54 26.5,-26.27 6.41,-1.95 17.04,-2.91 31.95,-2.91 15.04,0 26.49,0.95 34.49,2.82l0 23.59c-12.68,-2.5 -22.9,-3.77 -30.63,-3.77 -26.72,0 -40.04,6 -40.04,18 18.63,0 31.13,0.77 37.54,2.36 20.68,5.18 32.04,16.54 34.09,34.13l4.63 40.08c1.5,13.32 6.09,19.95 13.72,19.95l8.77 0 0 24.27zm89.35 0l-9.86 0c-10.63,0 -19.04,-4.82 -25.18,-14.5 -7.73,9.68 -16.22,14.5 -25.54,14.5l-36.49 0 0 -24.27 28.36 0c5.14,0 9.41,-2.09 12.77,-6.27 3.32,-3.86 4.95,-8.45 4.95,-13.68 0,-2.32 -0.32,-4.36 -0.91,-6.14l-20.22 -58.81 22.72 -10.27c5.23,12.95 15.22,41.63 29.95,86.03 2.05,6.09 5.23,9.13 9.59,9.13l9.86 0 0 24.27zm-11.04 21.5c-0.64,0 -1.41,9.27 -2.27,27.86 -6.59,-1.55 -18,-2.45 -34.22,-2.73 -16.27,-0.27 -28,0.27 -35.31,1.59l-1.05 -27.4c7.09,-1.5 19.18,-2.27 36.22,-2.27 18.54,0 30.77,1 36.63,2.95zm47.76 -154.79c-5.23,-0.77 -10.23,-1.14 -15,-1.14 -5.04,0 -9.77,0.41 -14.18,1.27l0 -26.27c2.14,-0.86 6.86,-1.36 14.18,-1.45 6.36,0 11.36,0.27 15,0.82l0 26.77zm23.72 77.49c1.45,4.36 2.18,8.82 2.18,13.32 0,10.77 -3.18,20.36 -9.59,28.77 -6.95,9.13 -15.63,13.72 -26.13,13.72l-34.63 0 0 -24.27 26.5 0c5.14,0 9.41,-2.09 12.77,-6.23 3.27,-3.91 4.91,-8.5 4.91,-13.72 0,-2.27 -0.32,-4.32 -0.95,-6.09l-20.09 -58.85 22.68 -10.41c5.5,13.77 12.95,35.04 22.36,63.76zm108.84 30.04c0,28.59 -10.73,53.81 -32.13,75.67l-18.5 -17.04c10.36,-8.77 17.22,-19.72 20.5,-32.86l-24.77 0c-7.64,0 -14.36,-4.09 -20.22,-12.27 -7.73,-10.82 -11.59,-26.95 -11.59,-48.36 0,-12.73 2.09,-24.59 6.27,-35.58 5.68,-14.95 13.82,-22.4 24.36,-22.4 12.73,0 25.31,10.68 37.81,32.09 12.18,20.81 18.27,41.04 18.27,60.76zm-24.95 1.5c0.27,-2.14 0.41,-4.36 0.41,-6.68 0,-12.95 -3.91,-26.68 -11.73,-41.08 -7.13,-13.04 -12.59,-19.59 -16.45,-19.59 -6.5,0 -9.73,11.09 -9.73,33.22 0,8 1.27,15.32 3.86,22 3.14,8.09 7.32,12.13 12.54,12.13l21.09 0zm117.16 24.27l-10.91 0c-4.64,0 -9.13,-2.04 -13.59,-6.14 -3.91,21.31 -13.45,40.17 -28.72,56.58l-18.77 -15.18c16.54,-21.59 24.81,-43.58 24.81,-66.03 0,-10.32 -3.23,-24.36 -9.73,-42.22l-13.41 -36.63 21.63 -10.91 26.9 76.99c4.5,12.86 9.86,19.27 16.04,19.27l5.73 0 0 24.27zm77.35 -160.65c-0.64,0 -1.36,9.23 -2.27,27.77 -6.54,-1.5 -17.95,-2.36 -34.22,-2.64 -16.22,-0.27 -28,0.27 -35.27,1.59l-1.05 -27.4c7.09,-1.5 19.13,-2.27 36.17,-2.27 18.59,0 30.77,1 36.63,2.95zm12.13 160.65l-9.86 0c-10.63,0 -19.04,-4.82 -25.18,-14.5 -7.73,9.68 -16.22,14.5 -25.54,14.5l-36.49 0 0 -24.27 28.36 0c5.14,0 9.41,-2.09 12.77,-6.27 3.32,-3.91 4.95,-8.45 4.95,-13.68 0,-2.32 -0.32,-4.36 -0.95,-6.14l-20.09 -58.81 22.68 -10.41c5.23,12.95 15.22,41.67 29.99,86.12 2,6.14 5.23,9.18 9.54,9.18l9.82 0 0 24.27zm134.88 0l-16.68 0c-5.95,0 -11.54,-3.14 -16.77,-9.45 -5.41,6.32 -11.91,9.45 -19.54,9.45l-89.89 0 0 -24.27 81.08 0c9.23,0 13.86,-4.82 13.86,-14.5 0,-0.86 -0.05,-2 -0.18,-3.32l-4.54 -34.63c-1.27,-9.41 -8.5,-16.13 -21.72,-20.22 -3.04,-0.86 -9.18,-1.45 -18.41,-1.73 -8.45,-0.18 -13.91,-0.04 -16.41,0.41 -1.86,0.36 -3.45,0.55 -4.77,0.55 -8.73,0 -13.04,-5.14 -13.04,-15.36 0,-2.27 0.23,-4.86 0.77,-7.73l2.14 -11.45c2.41,-12.77 11.23,-21.54 26.5,-26.27 6.41,-1.95 17.04,-2.91 31.95,-2.91 15,0 26.49,0.95 34.49,2.82l0 23.59c-12.68,-2.5 -22.9,-3.77 -30.63,-3.77 -26.72,0 -40.08,6 -40.08,18 18.63,0 31.18,0.77 37.54,2.36 20.72,5.18 32.08,16.54 34.08,34.13l4.68 40.08c1.5,13.32 6.09,19.95 13.72,19.95l11.86 0 0 24.27zm47.36 -46.49c0,11.27 -2.23,21.31 -6.68,30.08 -5.5,10.95 -13.41,16.41 -23.72,16.41l-24.68 0 0 -24.27 16.5 0c10.09,0 15.13,-7.27 15.13,-21.86 0,-14.09 -2.14,-33.86 -6.45,-59.26 -4.04,-23.95 -8.5,-44.17 -13.32,-60.58l22.4 -8.54c13.86,42.54 20.81,85.21 20.81,128.02zm63.81 46.49l-23.45 0c0.36,-4.09 0.55,-8.95 0.55,-14.63 0,-22.22 -1.91,-47.99 -5.73,-77.39 -4.05,-30.9 -9.04,-56.26 -15,-76.08l25.18 -4.77c4.18,17.22 8.18,39.77 12.09,67.67 4.73,33.81 7.09,62.08 7.09,84.85 0,7.45 -0.27,14.22 -0.73,20.36zm250.32 -133.79c-5.23,-0.77 -10.23,-1.18 -15,-1.18 -5.04,0 -9.77,0.45 -14.18,1.32l0 -26.31c2.14,-0.86 6.86,-1.36 14.18,-1.45 6.36,0 11.36,0.27 15,0.82l0 26.81zm60.49 133.79l-64.44 0c-7.04,0 -11.86,-1 -14.54,-2.95 -2.82,1.95 -8.73,2.95 -17.68,2.95l-82.3 0c-13.86,0 -25.09,-5.82 -33.68,-17.45 -7.82,-10.54 -11.72,-23 -11.72,-37.27 0,-10.04 2.82,-21.31 8.41,-33.81 4.86,-10.91 10.41,-19.91 16.63,-26.9l18.77 13.95c-4.86,5.45 -9.23,13.04 -13,22.9 -3.82,9.86 -5.73,18.36 -5.73,25.54 0,8.27 1.95,14.95 5.86,20.13 4.36,5.77 10.5,8.63 18.5,8.63l79.58 0c-3.32,-6.91 -4.95,-17.68 -4.95,-32.31 0,-14.5 2.18,-27.5 6.5,-39.13 5.5,-14.72 13.32,-22.09 23.41,-22.09 12.13,0 24.4,10.04 36.77,30.09 10.82,17.45 16.22,30.95 16.22,40.45 0,11.59 -3.14,19.27 -9.36,23l26.77 0 0 24.27zm-41.67 -47.58c0,-4.32 -3.36,-12.82 -10.09,-25.4 -7,-13.13 -12.13,-19.72 -15.41,-19.72 -6.45,0 -9.68,11.18 -9.68,33.54 0,16.36 3.77,27.99 11.27,34.9 5.86,-1.59 11.32,-4.59 16.36,-9 5.04,-4.41 7.54,-9.13 7.54,-14.32zm111.66 -8.23c1.41,4.36 2.14,8.82 2.14,13.32 0,10.77 -3.18,20.36 -9.59,28.77 -6.91,9.13 -15.63,13.72 -26.09,13.72l-43.95 0 0 -24.27 35.77 0c5.14,0 9.41,-2.09 12.77,-6.23 3.27,-3.91 4.91,-8.5 4.91,-13.72 0,-2.27 -0.32,-4.32 -0.91,-6.09l-20.09 -58.85 22.68 -10.27c5.5,13.72 12.95,34.95 22.36,63.62zm5.86 77.3c-0.64,0 -1.36,9.27 -2.27,27.86 -6.54,-1.55 -17.95,-2.45 -34.22,-2.73 -16.22,-0.27 -27.99,0.27 -35.27,1.59l-1.09 -27.4c7.14,-1.5 19.18,-2.27 36.22,-2.27 18.54,0 30.77,1 36.63,2.95zm89.85 -21.5l-10.91 0c-4.64,0 -9.13,-2.04 -13.59,-6.14 -3.91,21.31 -13.45,40.17 -28.72,56.58l-18.77 -15.18c16.54,-21.59 24.81,-43.58 24.81,-66.03 0,-10.32 -3.23,-24.36 -9.73,-42.22l-13.41 -36.63 21.63 -10.91 26.9 76.99c4.5,12.86 9.86,19.27 16.04,19.27l5.73 0 0 24.27zm94.12 -133.43c-5.23,-0.68 -10.23,-1 -15,-1 -5.04,0 -9.77,0.36 -14.18,1.14l0 -26.13c2.14,-0.86 6.86,-1.36 14.18,-1.45 6.36,0 11.36,0.27 15,0.82l0 26.63zm41.99 83.8c1,15.22 -4.59,27.59 -16.77,36.99 -10.91,8.41 -24.27,12.63 -40.04,12.63l-86.62 0 0 -24 19.72 0c5.14,0 8.27,-2.09 9.32,-6.27 0.36,-1.32 0.59,-6.23 0.68,-14.77 0.18,-13.59 -2.36,-33.95 -7.59,-61.12 -4.18,-21.91 -8.73,-41.54 -13.59,-58.85l22.86 -7.04c4.18,12.32 8.13,28.59 11.86,48.81 3.64,19.41 5.86,36.04 6.77,49.9 4.18,-9.68 10.54,-19.18 19.13,-28.49 9.68,-10.45 18.04,-15.68 25.04,-15.68 13.32,0 24.95,8.27 34.99,24.77 8.5,14 13.27,28.36 14.22,43.13zm-24 2.36c0,-7.32 -2.23,-16.18 -6.68,-26.59 -5.23,-12.23 -10.91,-18.31 -17.04,-18.31 -7.54,0 -15.41,9.63 -23.68,28.86 -6.73,15.68 -10.77,28.81 -12.13,39.31l29.04 0c20.31,0 30.49,-7.77 30.49,-23.27z"/>
   <g>
    <path class="fil1" d="M162.58 104.95c-50.38,-13.22 -112.74,-32.16 -143.26,-78.16l-18.43 -23.28c-11.8,93.63 96.29,106.28 161.69,101.43z"/>
    <path class="fil1" d="M169.34 113.63c-49.14,-0.56 -113.25,0.08 -144.95,-27.59 3.25,65.09 108.37,44.33 144.95,27.59z"/>
    <path class="fil1" d="M49.56 136.46c29.35,55.86 109.14,-5.03 116.95,-11.99 -42.15,11.02 -70.04,18.44 -116.95,11.99z"/>
    <path class="fil1" d="M89.35 169.36c29.13,28.67 63.36,-10.37 73.38,-27.91 -28.9,13.39 -36.41,20.39 -73.38,27.91z"/>
    <path class="fil1" d="M130.67 190.13c28.56,-3.56 34.99,-17.7 43.13,-40.61l-35.72 33.45c-1.08,0.97 -2.79,2.68 -3.68,3.49 -0.91,0.84 -2.51,2.41 -3.72,3.67z"/>
    <path class="fil1" d="M192.37 104.95c50.38,-13.22 112.74,-32.16 143.26,-78.16l18.43 -23.28c11.8,93.63 -96.29,106.28 -161.69,101.43z"/>
    <path class="fil1" d="M185.62 113.63c49.14,-0.56 113.25,0.08 144.95,-27.59 -3.25,65.09 -108.37,44.33 -144.95,27.59z"/>
    <path class="fil1" d="M305.39 136.46c-29.35,55.86 -109.14,-5.03 -116.95,-11.99 42.15,11.02 70.04,18.44 116.95,11.99z"/>
    <path class="fil1" d="M265.6 169.36c-29.13,28.67 -63.36,-10.37 -73.38,-27.91 28.9,13.39 36.41,20.39 73.38,27.91z"/>
    <path class="fil1" d="M224.29 190.13c-28.56,-3.56 -34.99,-17.7 -43.13,-40.61l35.72 33.45c1.08,0.97 2.79,2.68 3.68,3.49 0.91,0.84 2.51,2.41 3.72,3.67z"/>
   </g>
  </g>
 </g>
</svg>
