<?xml version="1.0" encoding="UTF-8"?>
<!DOCTYPE svg PUBLIC "-//W3C//DTD SVG 1.1//EN" "http://www.w3.org/Graphics/SVG/1.1/DTD/svg11.dtd">
<!-- Creator: CorelDRAW -->
<svg xmlns="http://www.w3.org/2000/svg" xml:space="preserve" width="17.7235in" height="17.7235in" version="1.1" style="shape-rendering:geometricPrecision; text-rendering:geometricPrecision; image-rendering:optimizeQuality; fill-rule:evenodd; clip-rule:evenodd"
viewBox="0 0 2774.12 2774.12"
 xmlns:xlink="http://www.w3.org/1999/xlink"
 xmlns:xodm="http://www.corel.com/coreldraw/odm/2003">
 <defs>
  <style type="text/css">
   <![CDATA[
    .str0 {stroke:#EDF2F5;stroke-width:1.09;stroke-miterlimit:2.61313}
    .fil0 {fill:none}
    .fil2 {fill:#1C326E}
    .fil1 {fill:#EDF2F5}
   ]]>
  </style>
 </defs>
 <g id="Layer_x0020_1">
  <metadata id="CorelCorpID_0Corel-Layer"/>
  <rect class="fil0" x="0.54" y="0.54" width="2773.03" height="2773.03"/>
  <circle class="fil1 str0" cx="1387.06" cy="1387.06" r="1386.51"/>
  <g id="_2181152215104">
   <path class="fil2" d="M1296.54 1436.43c-306.11,-80.3 -685.05,-195.41 -870.48,-474.89l-111.98 -141.43c-71.73,568.91 585.07,645.79 982.46,616.32z"/>
   <path class="fil2" d="M1337.59 1489.19c-298.61,-3.42 -688.12,0.48 -880.74,-167.62 19.77,395.53 658.51,269.39 880.74,167.62z"/>
   <path class="fil2" d="M609.79 1627.9c178.34,339.45 663.14,-30.54 710.62,-72.87 -256.09,66.94 -425.58,112.02 -710.62,72.87z"/>
   <path class="fil2" d="M851.58 1827.83c176.98,174.22 385.01,-63.02 445.89,-169.59 -175.58,81.38 -221.24,123.88 -445.89,169.59z"/>
   <path class="fil2" d="M1102.64 1954.01c173.53,-21.61 212.64,-107.56 262.05,-246.75l-217.07 203.25c-6.58,5.87 -16.97,16.28 -22.38,21.21 -5.56,5.08 -15.26,14.66 -22.6,22.29z"/>
   <path class="fil2" d="M1477.58 1436.43c306.11,-80.3 685.05,-195.41 870.48,-474.89l111.98 -141.43c71.73,568.91 -585.07,645.79 -982.46,616.32z"/>
   <path class="fil2" d="M1436.52 1489.19c298.61,-3.42 688.12,0.48 880.74,-167.62 -19.77,395.53 -658.51,269.39 -880.74,167.62z"/>
   <path class="fil2" d="M2164.33 1627.9c-178.34,339.45 -663.14,-30.54 -710.62,-72.87 256.08,66.94 425.58,112.02 710.62,72.87z"/>
   <path class="fil2" d="M1922.54 1827.83c-176.98,174.22 -385.01,-63.02 -445.89,-169.59 175.58,81.38 221.24,123.88 445.89,169.59z"/>
   <path class="fil2" d="M1671.48 1954.01c-173.53,-21.61 -212.64,-107.56 -262.05,-246.75l217.07 203.25c6.58,5.87 16.97,16.28 22.38,21.21 5.56,5.08 15.26,14.66 22.6,22.29z"/>
  </g>
 </g>
</svg>
